<?xml version="1.0" encoding="utf-8"?>
<!-- Generator: Adobe Illustrator 19.1.0, SVG Export Plug-In . SVG Version: 6.00 Build 0)  -->
<svg version="1.1" id="Layer_1" xmlns="http://www.w3.org/2000/svg" xmlns:xlink="http://www.w3.org/1999/xlink" x="0px" y="0px"
	 viewBox="0 0 150 50" style="enable-background:new 0 0 150 50;" xml:space="preserve">
<style type="text/css">
	.st0{fill:#ED1C24;}
	.st1{fill:#162E3F;}
	.st2{font-family:'NirmalaUI-Semilight';}
	.st3{font-size:33px;}
	.st4{font-family:'MyriadPro-Regular';}
	.st5{font-size:27px;}
</style>
<g>
	<path class="st0" d="M137.4,29.4c-1.5,2.7-3.9,4.7-6.8,5.5c-1.1,0.3-2.2,0.5-3.3,0.5c-1.6,0-3.2-0.4-4.6-1c0.5,0.1,1,0.1,1.5,0.1
		c1,0,2-0.1,3-0.4c2.7-0.8,4.9-2.6,6.3-5.1c1.3-2.5,1.6-5.3,0.9-8c-1.3-4.4-5.4-7.5-10.1-7.5c-0.8,0-1.7,0.1-2.5,0.3
		c0.7-0.4,1.5-0.7,2.3-1c1.1-0.3,2.2-0.5,3.3-0.5c5.1,0,9.6,3.4,11,8.3C139.2,23.6,138.8,26.7,137.4,29.4z M113.4,28
		c-2.3-7.7,2.1-15.7,9.8-18c1.3-0.4,2.7-0.6,4.1-0.6c0.9,0,1.8,0.1,2.6,0.3c-1.8-0.7-3.7-1.1-5.7-1.1c-1.5,0-3,0.2-4.4,0.6
		c-4,1.2-7.2,3.8-9.2,7.5c-2,3.6-2.4,7.8-1.3,11.8c1.9,6.5,8,11.1,14.9,11.1c1.5,0,3-0.2,4.4-0.6c0.9-0.3,1.8-0.6,2.6-1
		c-1.3,0.4-2.6,0.5-3.9,0.5C120.9,38.4,115.2,34.1,113.4,28z M122.5,18.1v3.8h-3.8v4h3.8v3.8h4v-3.8h3.8v-4h-3.8v-3.8H122.5z"/>
</g>
<text transform="matrix(1 0 0 1 -1.3333 34.0497)" class="st1 st2 st3">W</text>
<text transform="matrix(1 0 0 1 139.762 34.0498)" class="st1 st4 st5">r</text>
<g>
	<path class="st1" d="M44.6,25h6.6c0.1-0.5,0.1-0.9,0.1-1.4c0-2.2-0.6-4.3-1.6-6.1c1.1-2.9,1-5.3-0.4-6.8c-1.4-1.4-5.1-1.1-9.2,0.7
		c-0.3,0-0.6,0-0.9,0c-5.7,0-10.5,3.9-11.8,9.2c1.8-2.3,3.7-4,6.2-5.2c-0.2,0.2-1.6,1.5-1.8,1.8c-6.6,6.6-8.7,15.3-6.5,17.6
		c1.7,1.7,4.8,1.4,8.4-0.3c1.7,0.8,3.5,1.3,5.5,1.3c5.4,0,9.9-3.4,11.5-8.3H44c-0.9,1.7-2.7,2.8-4.7,2.8c-2,0-3.8-1.1-4.7-2.8
		c-0.4-0.8-0.6-1.6-0.6-2.5v0L44.6,25L44.6,25z M33.9,21.7c0.2-2.7,2.4-4.8,5.1-4.8c2.7,0,5,2.1,5.1,4.8L33.9,21.7L33.9,21.7z
		 M49.1,12.1c0.9,0.9,0.9,2.7,0.1,4.8c-1.4-2.1-3.3-3.7-5.7-4.7C46.1,11.2,48.1,11,49.1,12.1z M26.8,34.3c-1.2-1.2-0.8-3.7,0.7-6.7
		c1,2.7,2.8,4.9,5.2,6.4C30.1,35.2,27.9,35.4,26.8,34.3z"/>
</g>
<text transform="matrix(1 0 0 1 50.3335 35.3335)" class="st1 st4 st3">boct</text>
</svg>
